<svg width="1800" height="900" viewBox="0 0 1800 900" fill="none" xmlns="http://www.w3.org/2000/svg">
  <rect width="1800" height="900" fill="#F8FAFC"/>
  <path d="M0 648H1800" stroke="#0F172A" stroke-opacity="0.3" stroke-width="3"/>

  <g stroke="#0F172A" stroke-width="5" stroke-linecap="round" stroke-linejoin="round">
    <path d="M250 648V390H460V648"/>
    <path d="M510 648V330H760V648"/>
    <path d="M810 648V430H1030V648"/>
    <path d="M1120 648V300H1380V648"/>
  </g>

  <g stroke="#0F172A" stroke-width="3" opacity="0.75">
    <path d="M300 438h40v34h-40zM372 438h40v34h-40zM300 500h40v34h-40zM372 500h40v34h-40z"/>
    <path d="M560 380h44v38h-44zM638 380h44v38h-44zM560 448h44v38h-44zM638 448h44v38h-44zM560 516h44v38h-44zM638 516h44v38h-44z"/>
    <path d="M1164 350h50v44h-50zM1250 350h50v44h-50zM1164 426h50v44h-50zM1250 426h50v44h-50z"/>
  </g>

  <g stroke="#0F172A" stroke-width="5" stroke-linecap="round" stroke-linejoin="round">
    <path d="M1480 648V190"/>
    <path d="M1480 190H1710"/>
    <path d="M1520 240H1665"/>
    <path d="M1480 265L1710 190"/>
    <path d="M1608 190V306"/>
    <path d="M1608 306H1660"/>
    <path d="M1660 306V386"/>
    <path d="M1642 386H1678"/>
  </g>

  <g stroke="#0F172A" stroke-width="5" stroke-linecap="round" stroke-linejoin="round">
    <path d="M70 648V530L180 450L290 530V648"/>
    <path d="M106 648V564H154V648"/>
    <path d="M200 560H254V616H200z"/>
    <path d="M164 450L180 420L196 450"/>
  </g>

  <g stroke="#0F172A" stroke-width="4" stroke-linecap="round" opacity="0.85">
    <path d="M930 238l40 22M970 238l-40 22"/>
    <path d="M980 180h52M1006 154v52"/>
    <path d="M420 230c12-14 34-14 46 0l-23 24-23-24z"/>
  </g>

  <circle cx="1330" cy="130" r="36" stroke="#0F172A" stroke-width="4"/>
  <g stroke="#0F172A" stroke-width="3" stroke-linecap="round">
    <path d="M1330 78V62"/>
    <path d="M1330 198V182"/>
    <path d="M1278 130H1262"/>
    <path d="M1398 130H1382"/>
  </g>
</svg>
